<svg width="1224" height="1224" viewBox="0 0 1224 1224" fill="none" xmlns="http://www.w3.org/2000/svg">
<g filter="url(#filter0_d_0_3)">
<rect x="100" y="100" width="1024" height="1024" rx="225" fill="#E4E1DA"/>
<mask id="mask0_0_3" style="mask-type:alpha" maskUnits="userSpaceOnUse" x="100" y="100" width="1024" height="1024">
<rect x="100" y="100" width="1024" height="1024" rx="225" fill="white"/>
</mask>
<g mask="url(#mask0_0_3)">
<path fill-rule="evenodd" clip-rule="evenodd" d="M379 25V573.16L1190 1166L1160.99 25H379Z" fill="#9DDF7B" stroke="#979797"/>
<rect x="-32.5" y="493.5" width="369" height="736" fill="#FFCCD5" stroke="#979797"/>
<path fill-rule="evenodd" clip-rule="evenodd" d="M49.1974 207L1148 980.237L980.888 1146C980.888 1146 513.89 817.31 39.7372 484.425C20.4649 470.895 49.1974 207 49.1974 207Z" fill="#FFE707" stroke="#FDAD19" stroke-width="20"/>
<rect x="245" y="51" width="224" height="1121" fill="white"/>
<rect x="237.5" y="43.5" width="239" height="1136" stroke="#919191" stroke-opacity="0.3" stroke-width="15"/>
<rect x="289" y="74" width="136" height="632" fill="#3394E3"/>
<circle cx="357" cy="706" r="180" fill="#0079DC"/>
<path fill-rule="evenodd" clip-rule="evenodd" d="M357.5 590L281 815L357.5 740.024L434 815L357.5 590Z" fill="white"/>
<circle cx="1109.5" cy="114.5" r="547" fill="#F3F0E9" stroke="#8CC76E" stroke-width="15"/>
<circle cx="1137" cy="87" r="349.5" fill="#9DDF7B" stroke="#8CC76E" stroke-width="15"/>
</g>
<g clip-path="url(#clip0_0_3)">
<path d="M877.978 1058C819.843 1058 775.316 1035.63 744.619 1000.97C713.79 966.151 696.551 918.494 694.155 867.638C692.705 836.848 701.588 800.803 712.695 776.79C720.934 781.404 730.788 785.079 741.007 787.786C754.897 791.465 770.089 793.52 784.028 793.52C804.878 793.52 826.465 790.915 844.536 784.846C857.636 780.446 869.72 773.932 877.978 764.552C886.236 773.932 898.32 780.446 911.42 784.846C929.491 790.915 951.078 793.52 971.928 793.52C985.867 793.52 1001.06 791.465 1014.95 787.786C1025.3 785.045 1035.27 781.31 1043.57 776.615C1048.27 786.16 1052.72 799.052 1056.09 813.32C1060.37 831.437 1062.72 850.998 1061.8 867.574C1059 918.461 1041.75 966.139 1011.01 1000.96C980.419 1035.63 936.105 1058 877.978 1058Z" fill="#007AFF"/>
<path d="M877.978 1058C819.843 1058 775.316 1035.63 744.619 1000.97C713.79 966.151 696.551 918.494 694.155 867.638C692.705 836.848 701.588 800.803 712.695 776.79C720.934 781.404 730.788 785.079 741.007 787.786C754.897 791.465 770.089 793.52 784.028 793.52C804.878 793.52 826.465 790.915 844.536 784.846C857.636 780.446 869.72 773.932 877.978 764.552C886.236 773.932 898.32 780.446 911.42 784.846C929.491 790.915 951.078 793.52 971.928 793.52C985.867 793.52 1001.06 791.465 1014.95 787.786C1025.3 785.045 1035.27 781.31 1043.57 776.615C1048.27 786.16 1052.72 799.052 1056.09 813.32C1060.37 831.437 1062.72 850.998 1061.8 867.574C1059 918.461 1041.75 966.139 1011.01 1000.96C980.419 1035.63 936.105 1058 877.978 1058Z" stroke="white" stroke-width="16"/>
<path d="M877.978 1058C819.843 1058 775.316 1035.63 744.619 1000.97C713.79 966.151 696.551 918.494 694.155 867.638C692.705 836.848 701.588 800.803 712.695 776.79C720.934 781.404 730.788 785.079 741.007 787.786C754.897 791.465 770.089 793.52 784.028 793.52C804.878 793.52 826.465 790.915 844.536 784.846C857.636 780.446 869.72 773.932 877.978 764.552C886.236 773.932 898.32 780.446 911.42 784.846C929.491 790.915 951.078 793.52 971.928 793.52C985.867 793.52 1001.06 791.465 1014.95 787.786C1025.3 785.045 1035.27 781.31 1043.57 776.615C1048.27 786.16 1052.72 799.052 1056.09 813.32C1060.37 831.437 1062.72 850.998 1061.8 867.574C1059 918.461 1041.75 966.139 1011.01 1000.96C980.419 1035.63 936.105 1058 877.978 1058Z" stroke="#0079DC" stroke-width="16"/>
<mask id="mask1_0_3" style="mask-type:alpha" maskUnits="userSpaceOnUse" x="686" y="750" width="384" height="316">
<path d="M877.978 1058C819.843 1058 775.316 1035.63 744.619 1000.97C713.79 966.151 696.551 918.494 694.155 867.638C692.705 836.848 701.588 800.803 712.695 776.79C720.934 781.404 730.788 785.079 741.007 787.786C754.897 791.465 770.089 793.52 784.028 793.52C804.878 793.52 826.465 790.915 844.536 784.846C857.636 780.446 869.72 773.932 877.978 764.552C886.236 773.932 898.32 780.446 911.42 784.846C929.491 790.915 951.078 793.52 971.928 793.52C985.867 793.52 1001.06 791.465 1014.95 787.786C1025.3 785.045 1035.27 781.31 1043.57 776.615C1048.27 786.16 1052.72 799.052 1056.09 813.32C1060.37 831.437 1062.72 850.998 1061.8 867.574C1059 918.461 1041.75 966.139 1011.01 1000.96C980.419 1035.63 936.105 1058 877.978 1058Z" fill="white"/>
<path d="M877.978 1058C819.843 1058 775.316 1035.63 744.619 1000.97C713.79 966.151 696.551 918.494 694.155 867.638C692.705 836.848 701.588 800.803 712.695 776.79C720.934 781.404 730.788 785.079 741.007 787.786C754.897 791.465 770.089 793.52 784.028 793.52C804.878 793.52 826.465 790.915 844.536 784.846C857.636 780.446 869.72 773.932 877.978 764.552C886.236 773.932 898.32 780.446 911.42 784.846C929.491 790.915 951.078 793.52 971.928 793.52C985.867 793.52 1001.06 791.465 1014.95 787.786C1025.3 785.045 1035.27 781.31 1043.57 776.615C1048.27 786.16 1052.72 799.052 1056.09 813.32C1060.37 831.437 1062.72 850.998 1061.8 867.574C1059 918.461 1041.75 966.139 1011.01 1000.96C980.419 1035.63 936.105 1058 877.978 1058Z" stroke="white" stroke-width="16"/>
</mask>
<g mask="url(#mask1_0_3)">
<g filter="url(#filter1_d_0_3)">
<rect x="679" y="753" width="391" height="83" fill="#DE1D26"/>
</g>
<path d="M877.978 1058C819.843 1058 775.316 1035.63 744.619 1000.97C713.79 966.151 696.551 918.494 694.155 867.638C692.705 836.848 701.588 800.803 712.695 776.79C720.934 781.404 730.788 785.079 741.007 787.786C754.897 791.465 770.089 793.52 784.028 793.52C804.878 793.52 826.465 790.915 844.536 784.846C857.636 780.446 869.72 773.932 877.978 764.552C886.236 773.932 898.32 780.446 911.42 784.846C929.491 790.915 951.078 793.52 971.928 793.52C985.867 793.52 1001.06 791.465 1014.95 787.786C1025.3 785.045 1035.27 781.31 1043.57 776.615C1048.27 786.16 1052.72 799.052 1056.09 813.32C1060.37 831.437 1062.72 850.998 1061.8 867.574C1059 918.461 1041.75 966.139 1011.01 1000.96C980.419 1035.63 936.105 1058 877.978 1058Z" stroke="white" stroke-width="16"/>
</g>
</g>
</g>
<defs>
<filter id="filter0_d_0_3" x="0" y="0" width="1224" height="1224" filterUnits="userSpaceOnUse" color-interpolation-filters="sRGB">
<feFlood flood-opacity="0" result="BackgroundImageFix"/>
<feColorMatrix in="SourceAlpha" type="matrix" values="0 0 0 0 0 0 0 0 0 0 0 0 0 0 0 0 0 0 127 0" result="hardAlpha"/>
<feOffset/>
<feGaussianBlur stdDeviation="50"/>
<feColorMatrix type="matrix" values="0 0 0 0 0 0 0 0 0 0 0 0 0 0 0 0 0 0 0.3 0"/>
<feBlend mode="normal" in2="BackgroundImageFix" result="effect1_dropShadow_0_3"/>
<feBlend mode="normal" in="SourceGraphic" in2="effect1_dropShadow_0_3" result="shape"/>
</filter>
<filter id="filter1_d_0_3" x="679" y="753" width="391" height="100" filterUnits="userSpaceOnUse" color-interpolation-filters="sRGB">
<feFlood flood-opacity="0" result="BackgroundImageFix"/>
<feColorMatrix in="SourceAlpha" type="matrix" values="0 0 0 0 0 0 0 0 0 0 0 0 0 0 0 0 0 0 127 0" result="hardAlpha"/>
<feOffset dy="17"/>
<feColorMatrix type="matrix" values="0 0 0 0 1 0 0 0 0 1 0 0 0 0 1 0 0 0 1 0"/>
<feBlend mode="normal" in2="BackgroundImageFix" result="effect1_dropShadow_0_3"/>
<feBlend mode="normal" in="SourceGraphic" in2="effect1_dropShadow_0_3" result="shape"/>
</filter>
<clipPath id="clip0_0_3">
<rect width="384" height="316" fill="white" transform="translate(686 750)"/>
</clipPath>
</defs>
</svg>
