<svg xmlns="http://www.w3.org/2000/svg" xmlns:xlink="http://www.w3.org/1999/xlink" viewBox="0 0 67 66" fill="#fff" fill-rule="evenodd" stroke="#000" stroke-linecap="round" stroke-linejoin="round"><use xlink:href="#A" x="1" y="1"/><symbol id="A" overflow="visible"><g stroke="none"><path d="M8.726 0h46.546A8.73 8.73 0 0 1 64 8.728V55.26c0 4.8-3.908 8.726-8.728 8.726H8.726C3.904 63.986 0 60.08 0 55.26V8.728C0 3.908 3.904 0 8.726 0" fill="#8cc63f"/><path d="M49.284 25.374c-.008 1.08-1.08 1.894-2.34 1.896s-2.334-.816-2.34-1.896v-1.368c.006-1.09 1.08-1.9 2.34-1.9s2.33.81 2.34 1.9zm7.94 6.29l-1.594-1.55c.8-1.456 1.14-3.27 1.14-5.426-.032-6.06-2.676-9.376-9.826-9.406-7.15.03-9.8 3.348-9.828 9.406.032 6.054 2.68 9.412 9.828 9.44 2.14.008 3.88-.316 5.268-.92l1.7 1.76c.724.72 2.054.572 2.968-.344s1.064-2.24.34-2.964zM39.556 47.668a1.96 1.96 0 0 1-.738-1.544l-.006-9.254c0-5.746-2.632-9.216-9.408-9.01-3.076.094-5.92 2.164-5.92 2.164-.346.21-.63 0-.63 0s-2.844-2.068-5.92-2.164c-6.776-.208-9.406 3.264-9.406 9.01l-.004 9.98c0 .976.28 1.8 1.444 1.8h6.87c.26 0 .472-.214.472-.476 0-.292-.25-.41-.366-.5a1.98 1.98 0 0 1-.738-1.556l-.006-9.104c.016-.972 1.054-1.69 2.16-1.7 1.1.006 2.14.726 2.154 1.7l-.014 9.832c0 .976.28 1.8 1.446 1.8h6.52c.26 0 .474-.214.474-.476 0-.292-.248-.41-.368-.5a1.98 1.98 0 0 1-.736-1.556l-.006-9.112c.016-.97 1.054-1.68 2.154-1.684 1.1.006 2.136.714 2.154 1.684v9.846c0 .976.28 1.8 1.444 1.8h6.866c.264 0 .474-.214.474-.476 0-.292-.248-.41-.366-.5zm4.63-.606c.22 0 .412-.014.412-.276 0-.214-.188-.248-.368-.248h-.354v.524zm-.31.96h-.256v-1.7h.648c.404 0 .6.144.6.48 0 .304-.19.44-.44.468l.484.752h-.292l-.446-.74h-.3zm.316.374c.666 0 1.194-.52 1.194-1.232 0-.7-.528-1.226-1.194-1.226a1.2 1.2 0 0 0-1.204 1.226c0 .714.528 1.232 1.204 1.232zm-1.5-1.232c0-.844.69-1.468 1.5-1.468s1.488.624 1.488 1.468c0 .86-.684 1.48-1.488 1.48s-1.5-.624-1.5-1.48z"/></g></symbol></svg>