<svg width="333" height="304" viewBox="0 0 333 304" fill="none" xmlns="http://www.w3.org/2000/svg">
<path d="M284.857 164.579C280.292 169.139 276.043 173.331 271.48 177.896C262.541 186.823 253.903 195.369 244.985 204.317C236.056 213.263 227.455 221.825 218.528 230.772L191.781 257.432L162.403 257.257C163.216 255.379 172.945 246.321 175.031 244.079C175.875 243.179 177.301 242.004 178.237 240.973L201.399 217.531C205.964 212.959 210.18 208.747 214.748 204.177C220.285 198.648 266.696 152.861 267.545 151.113C259.921 144.465 223.103 106.899 214.995 98.776C209.401 93.184 164.495 47.3494 162.895 46.4987C166.88 45.82 185.831 46.2534 191.297 46.2574C193.536 46.2574 193.935 47.3813 195.195 48.6693L244.979 98.3987C248.585 102.008 296.329 148.968 297.963 151.524C293.573 155.449 289.167 160.272 284.857 164.579V164.579ZM120.909 240.613C110.976 240.515 101.02 240.648 91.08 240.589C91.6986 239.636 91.1586 240.375 91.8746 239.64L146.333 195.961C155.735 188.485 164.767 181.295 174.065 173.692L201.836 151.487L188.372 140.448C161.16 118.107 132.545 96.0053 105.097 73.7173C102.865 71.904 100.379 69.996 98.0866 68.1053C96.924 67.1493 95.9106 66.328 94.584 65.2947L91.116 62.1347L123.331 62.1147C125.804 62.1147 135.485 70.6893 137.813 72.5587L236.004 150.992C235.192 152.528 235.699 151.692 234.309 152.876C233.285 153.755 233.047 153.845 232.135 154.579C230.48 155.909 229.699 156.587 228.112 157.832C225.311 160.021 222.775 162.084 220.024 164.305C214.355 168.865 209.541 172.668 203.828 177.243L130.783 235.756C124.551 240.839 125.781 240.659 120.909 240.613V240.613ZM64.1053 189.952C64.1053 188.269 68.824 186.141 71.4333 184.656L128.247 151.075C125.947 150.237 122.535 147.879 120.153 146.525L67.7826 115.889C66.4786 115.136 64.1053 114.54 64.1053 112.765L64.2466 89.1667C67.3426 90.9693 166.807 149.571 170.56 151.007C169.231 152.88 145.881 165.924 144.041 166.971L64.2987 213.545C63.7653 209.528 64.1026 195.017 64.1053 189.952V189.952ZM332.633 57.088C332.633 25.944 307.159 0.473373 276.017 0.473373H57.2187C26.08 0.473373 0.603943 25.944 0.603943 57.088V246.453C0.603943 277.593 26.08 303.072 57.2187 303.072H276.017C307.159 303.072 332.633 277.593 332.633 246.453V57.088" fill="#6ACCF1"/>
<path d="M170.56 151.007C166.807 149.571 67.3427 90.9694 64.2467 89.1667L64.1053 112.765C64.1053 114.54 66.4787 115.136 67.7827 115.889L120.153 146.525C122.535 147.879 125.947 150.237 128.247 151.075L71.4333 184.656C68.824 186.141 64.1053 188.269 64.1053 189.952C64.1027 195.017 63.7654 209.528 64.2987 213.545L144.041 166.971C145.881 165.924 169.231 152.88 170.56 151.007" fill="white"/>
<path d="M220.024 164.305C222.775 162.084 225.311 160.021 228.112 157.832C229.699 156.587 230.48 155.909 232.135 154.579C233.047 153.845 233.285 153.755 234.309 152.876C235.699 151.692 235.192 152.528 236.004 150.992L137.813 72.5587C135.485 70.6894 125.804 62.1147 123.331 62.1147L91.116 62.1348L94.5839 65.2947C95.9106 66.3281 96.9239 67.1494 98.0866 68.1054C100.379 69.9961 102.865 71.9041 105.097 73.7174C132.545 96.0054 161.16 118.107 188.372 140.448L201.836 151.487L174.065 173.692C164.767 181.295 155.735 188.485 146.333 195.961L91.8746 239.64C91.1586 240.375 91.6986 239.636 91.08 240.589C101.02 240.648 110.976 240.515 120.909 240.613C125.781 240.659 124.551 240.839 130.783 235.756L203.828 177.243C209.541 172.668 214.355 168.865 220.024 164.305" fill="white"/>
<path d="M297.963 151.524C296.329 148.968 248.585 102.008 244.979 98.3988L195.195 48.6695C193.935 47.3815 193.536 46.2575 191.297 46.2575C185.831 46.2535 166.88 45.8202 162.895 46.4988C164.495 47.3495 209.401 93.1842 214.995 98.7762C223.103 106.899 259.921 144.465 267.545 151.113C266.696 152.861 220.285 198.648 214.748 204.177C210.18 208.747 205.964 212.959 201.399 217.531L178.237 240.973C177.301 242.004 175.875 243.179 175.031 244.079C172.945 246.321 163.216 255.379 162.403 257.257L191.781 257.432L218.528 230.772C227.455 221.825 236.056 213.263 244.985 204.317C253.903 195.369 262.541 186.823 271.48 177.896C276.043 173.331 280.292 169.139 284.857 164.579C289.167 160.272 293.573 155.449 297.963 151.524" fill="white"/>
</svg>
